<svg id="Layer_1" data-name="Layer 1" xmlns="http://www.w3.org/2000/svg" viewBox="0 0 91.57 87.35"><title>about-programs</title><path d="M31.08,12.52A20.66,20.66,0,0,1,42,15.62l8.24,5.1a14.29,14.29,0,0,0,7.53,2.14H72.21L85,58.12H75.41a20.67,20.67,0,0,1-10.75-3l-8.24-5A14.3,14.3,0,0,0,49,48H29.24L16.32,12.52H31.08m0-8H4.89L35.64,89a4.35,4.35,0,0,0,4.09,2.86h0A4.35,4.35,0,0,0,43.82,86L32.9,56H49a6.3,6.3,0,0,1,3.27.92l8.24,5a28.68,28.68,0,0,0,14.9,4.18H96.47L77.81,14.87H57.73a6.3,6.3,0,0,1-3.32-.94l-8.24-5.1a28.68,28.68,0,0,0-15.1-4.3h0Z" transform="translate(-4.89 -4.52)"/></svg>