<svg id="Layer_1" data-name="Layer 1" xmlns="http://www.w3.org/2000/svg" viewBox="0 0 110.56 29.08"><title>accronym-ncar</title><path d="M49,8.69c-6.2,0-10,2.84-10,10,0,7.47,4.71,12.08,12.17,12a15.3,15.3,0,0,0,8.21-2.44v4a18.59,18.59,0,0,1-8.65,2c-8.73,0-15.9-5-15.94-15.51,0-9.48,6.08-13.54,13.58-13.56a43.05,43.05,0,0,1,11,1.66l0,4.23C57.27,9.61,52.41,8.67,49,8.69" transform="translate(-5.62 -5.17)"/><path d="M85.26,33.22A10.79,10.79,0,0,0,84,29.7c-0.86-1.93-1.77-3.66-2.63-5.59l-12.14,0c-0.85,2-1.69,3.71-2.59,5.65a18.66,18.66,0,0,0-1.13,3.48l-5.2,0s0.61-.56,2-3.72c1-2.41,7.95-17.93,9-20.34A14.73,14.73,0,0,0,72.53,6l5.65,0a12.8,12.8,0,0,0,1.15,3.2c1.05,2.41,7.89,17.75,9,20.2,1.58,3.43,2.21,3.83,2.21,3.83l-5.26,0M75.18,10.06c-1.55,3.6-3,7.1-4.65,10.7l9.72,0C78.58,17.13,76.85,13.65,75.18,10.06Z" transform="translate(-5.62 -5.17)"/><path d="M109.78,33.13c-0.67-.67-1.38-1.34-2.09-2l-11.42-10,0,8.81a11.22,11.22,0,0,0,.34,3.28l-4.65,0a9.89,9.89,0,0,0,.27-3.28L92.19,9.17a22.78,22.78,0,0,0-.25-3.24c3.56,0,6.64-.5,10.1-0.51,5.31,0,9.3,1.86,9.32,6.68s-3.67,7.84-9.93,8.61c3.57,3,7.13,6.14,10.7,9.21a32.2,32.2,0,0,0,4,3.19l-6.4,0m-9-24.78c-1.52,0-3,.21-4.6.37l0,8.79c1,0.08,1.9.15,2.89,0.15,4.17,0,7.72-.83,7.71-4.9C106.85,9.39,104.52,8.33,100.82,8.35Z" transform="translate(-5.62 -5.17)"/><path d="M25.92,33.31S25.24,32.16,23.7,30c-4.62-6.32-9.2-12.71-13.78-19.07v19a14.31,14.31,0,0,0,.2,3.4H5.62a15.15,15.15,0,0,0,.24-3.43V10a26.21,26.21,0,0,0-.2-3.95h5.84a21,21,0,0,0,2.25,3.47l13.7,19V9.86a21.28,21.28,0,0,0-.2-3.79h4.5a19.6,19.6,0,0,0-.24,3.79V29.32c0,3.59.16,3.59,0.24,4H25.92" transform="translate(-5.62 -5.17)"/></svg>