<svg id="Layer_1" data-name="Layer 1" xmlns="http://www.w3.org/2000/svg" viewBox="0 0 108.04 29.08"><title>accronym-ucar</title><path d="M29.84,12l0,10.39c0,2.29.1,6.12-.45,8.18-1.29,4.79-6.82,5.83-11.08,5.85s-9.76-1-11.2-5.73c-0.52-1.74-.46-6.16-0.46-8.14l0-10.47A20.65,20.65,0,0,0,6.43,8.4l4.58,0a19.62,19.62,0,0,0-.22,3.72l0.05,14.07a13.68,13.68,0,0,0,.25,2.92c0.84,3.16,4,3.82,7.24,3.81s6.36-.66,7.18-3.78a12.61,12.61,0,0,0,.27-2.85L25.73,12.08a24.27,24.27,0,0,0-.25-3.75l4.54,0A20.33,20.33,0,0,0,29.84,12" transform="translate(-6.43 -7.34)"/><path d="M47.26,10.86c-6.2,0-10,2.84-10,10,0,7.47,4.71,12.08,12.17,12a15.31,15.31,0,0,0,8.21-2.44v4a18.57,18.57,0,0,1-8.65,2c-8.73,0-15.9-5-15.94-15.51,0-9.48,6.08-13.54,13.58-13.56A43.09,43.09,0,0,1,57.61,9l0,4.23c-2.06-1.46-6.92-2.39-10.36-2.37" transform="translate(-6.43 -7.34)"/><path d="M83.55,35.39a10.8,10.8,0,0,0-1.24-3.51c-0.86-1.93-1.77-3.66-2.63-5.59l-12.14,0C66.7,28.31,65.85,30,65,32a18.64,18.64,0,0,0-1.13,3.48l-5.2,0s0.61-.56,2-3.72c1-2.41,7.95-17.93,9-20.34a14.74,14.74,0,0,0,1.22-3.24l5.65,0a12.84,12.84,0,0,0,1.15,3.2c1.05,2.41,7.89,17.75,9,20.2,1.58,3.43,2.21,3.83,2.21,3.83l-5.26,0M73.47,12.23c-1.55,3.6-3,7.1-4.65,10.7l9.72,0C76.87,19.3,75.14,15.82,73.47,12.23Z" transform="translate(-6.43 -7.34)"/><path d="M108.07,35.3c-0.67-.67-1.38-1.34-2.09-2l-11.42-10,0,8.81a11.22,11.22,0,0,0,.34,3.28l-4.65,0a9.89,9.89,0,0,0,.27-3.28L90.48,11.34a22.78,22.78,0,0,0-.25-3.24c3.56,0,6.64-.5,10.1-0.51,5.31,0,9.3,1.86,9.32,6.68s-3.67,7.84-9.93,8.61c3.57,3,7.13,6.14,10.7,9.21a32.29,32.29,0,0,0,4,3.19l-6.4,0m-9-24.78c-1.52,0-3,.21-4.6.37l0,8.79c1,0.08,1.9.15,2.89,0.15,4.17,0,7.72-.83,7.71-4.9C105.14,11.56,102.81,10.5,99.11,10.52Z" transform="translate(-6.43 -7.34)"/></svg>