<svg id="Layer_1" data-name="Layer 1" xmlns="http://www.w3.org/2000/svg" viewBox="0 0 95.57 95.24"><title>advocacy</title><path d="M54.55,93a21.37,21.37,0,0,0-2.21-1.86A17.57,17.57,0,0,1,50.86,90a20.17,20.17,0,0,1-6.37-14.63A18.51,18.51,0,0,1,50,61.38c1.79-1.79,1.86-3.88.16-5.57a3.73,3.73,0,0,0-5.73,0c-6.69,6.69-9.15,15.09-7.32,24.93C38,86,40.7,90.93,45.29,95.52a38.29,38.29,0,0,0,4.8,4.11,4.38,4.38,0,0,0,2.49.87,3.88,3.88,0,0,0,3.23-1.93,3.35,3.35,0,0,0,.26-3.47A8.12,8.12,0,0,0,54.55,93Z" transform="translate(-5.63 -5.27)"/><path d="M46.24,37.92h0.65a21.14,21.14,0,0,1,15,6.54,21.16,21.16,0,0,1,6.54,15A18.91,18.91,0,0,1,62.69,74c-1.69,1.69-1.63,3.78.17,5.57A4.12,4.12,0,0,0,65.76,81a3.72,3.72,0,0,0,2.66-1.22,26.72,26.72,0,0,0,7.91-20.22A29.26,29.26,0,0,0,67.44,38.9,29.24,29.24,0,0,0,46.79,30H46.05a26.59,26.59,0,0,0-19.48,7.92,43.66,43.66,0,0,0-11.7,19.5,57.83,57.83,0,0,0-2.36,16.85A3.74,3.74,0,0,0,13.6,77a4,4,0,0,0,2.87,1.26,4,4,0,0,0,3.06-1.13,3.72,3.72,0,0,0,.91-2.85,65.15,65.15,0,0,1,1.91-14.68c1.56-5.52,4.91-10.88,10-15.93A18.8,18.8,0,0,1,46.24,37.92Z" transform="translate(-5.63 -5.27)"/><path d="M55.15,18.39a42.48,42.48,0,0,0-9.65-1.14,39.66,39.66,0,0,0-13.57,2.41,37,37,0,0,0-14.38,9.23A60.07,60.07,0,0,0,6.1,45.69c-1,2-.36,4,1.78,5.11a4.41,4.41,0,0,0,2.08.58,3.59,3.59,0,0,0,3.23-2.17l0-.1a48.75,48.75,0,0,1,10-14.5,30.63,30.63,0,0,1,11.25-7.52,32.82,32.82,0,0,1,10.74-1.82,35.31,35.31,0,0,1,25,10.5,34.41,34.41,0,0,1,10.48,24c0.26,9.21-2.77,17-9,23.28a7.27,7.27,0,0,1-5.39,2.2H65.94a9,9,0,0,1-6.22-2.84A8.62,8.62,0,0,1,57,76.29a7.48,7.48,0,0,1,2.27-5.72A15.25,15.25,0,0,0,63.77,59a16.67,16.67,0,0,0-5-11.69,16.26,16.26,0,0,0-11.63-5H46.86A15.39,15.39,0,0,0,35.6,46.94,36.71,36.71,0,0,0,24.49,73.78a41.24,41.24,0,0,0,5.79,21.12l0.1,0.17L31,95.69a3.72,3.72,0,0,0,2.67,1.19,4.12,4.12,0,0,0,2.12-.63l0.1-.07A4.39,4.39,0,0,0,38,93.28a3.25,3.25,0,0,0-.7-2.45,33.61,33.61,0,0,1-4.84-17.05,29.06,29.06,0,0,1,8.75-21.27A7.85,7.85,0,0,1,47,50.16a8.4,8.4,0,0,1,6.16,2.68,8.8,8.8,0,0,1,2.76,6.27A7.7,7.7,0,0,1,53.66,65a15,15,0,0,0-4.54,11.44,16.47,16.47,0,0,0,5,11.53,16.89,16.89,0,0,0,11.59,5.12h0.73a14.8,14.8,0,0,0,10.82-4.47c7.81-7.81,11.66-17.57,11.44-29A41.83,41.83,0,0,0,76,30,42.9,42.9,0,0,0,55.15,18.39Z" transform="translate(-5.63 -5.27)"/><path d="M98.51,44.92A56.28,56.28,0,0,0,84.35,22,56.23,56.23,0,0,0,61.43,7.83a49.87,49.87,0,0,0-15.8-2.57A54.44,54.44,0,0,0,36,6.14a3.7,3.7,0,0,0-3.13,2.75,3.93,3.93,0,0,0,1.21,3.89,3.69,3.69,0,0,0,2.66,1.12,4.29,4.29,0,0,0,.64,0A43.88,43.88,0,0,1,45,13.18a45.52,45.52,0,0,1,14,2.27A47.19,47.19,0,0,1,78.69,27.63a51.1,51.1,0,0,1,12.2,19.69,43.34,43.34,0,0,1,1.6,21.2,3.66,3.66,0,0,0,.27,2.88,4.18,4.18,0,0,0,2.75,1.85,4.59,4.59,0,0,0,1.27.19c1,0,2.85-.42,3.58-3.33A49.33,49.33,0,0,0,98.51,44.92Z" transform="translate(-5.63 -5.27)"/></svg>