<svg id="Layer_1" data-name="Layer 1" xmlns="http://www.w3.org/2000/svg" viewBox="0 0 119.83 78.7"><title>altitude</title><path d="M33,82.25c-8.13,0-15.17-2.49-20.92-8.24a28.15,28.15,0,0,1-8.67-20.7,28.4,28.4,0,0,1,7.63-19.65,28.53,28.53,0,0,1,18.72-9.54h0.39l0.19-.34A39,39,0,0,1,44.09,9.12,35.53,35.53,0,0,1,63.36,3.55,36.19,36.19,0,0,1,87,12,36.4,36.4,0,0,1,99.83,33.52l0.11,0.56,0.57,0a24.07,24.07,0,0,1,16.1,7.71,23.47,23.47,0,0,1,6.67,16.66A22.85,22.85,0,0,1,116,75.43c-4.81,4.81-10.65,6.82-17.36,6.82H33Zm0-49.86a20,20,0,0,0-14.75,6.27,20.59,20.59,0,0,0-6.14,14.86,20.19,20.19,0,0,0,6.14,14.75A20.19,20.19,0,0,0,33,74.41H98.67A16.12,16.12,0,0,0,114.58,58.5,16.28,16.28,0,0,0,98.67,42.41h-7V40.72A28.09,28.09,0,0,0,63.3,12.25c-9.37,0-17,3.85-22.85,11.43l-0.67.89,1.09,0.29a28.4,28.4,0,0,1,15.6,10.33A29.74,29.74,0,0,1,62,47.28a4.32,4.32,0,0,1-4.28,5.13h0A4.31,4.31,0,0,1,53.49,49a21.26,21.26,0,0,0-5.72-10.54A19.85,19.85,0,0,0,33,32.39Z" transform="translate(-3.44 -3.55)"/></svg>