<svg id="Layer_1" data-name="Layer 1" xmlns="http://www.w3.org/2000/svg" viewBox="0 0 99.33 99.33"><title>atmosphere</title><path d="M29.67,10.66q1.91,1.91.17,3.65a2.39,2.39,0,0,1-3.82,0,2.39,2.39,0,0,1,0-3.82Q27.76,8.75,29.67,10.66ZM14.91,25.42a2.39,2.39,0,0,1,0,3.82q-1.74,1.74-3.65-.17t-0.17-3.65A2.39,2.39,0,0,1,14.91,25.42ZM53.81,3.54A5,5,0,0,1,57.45,5.1a5,5,0,0,1,0,7.29,5,5,0,0,1-7.29,0,5,5,0,0,1,0-7.29A5,5,0,0,1,53.81,3.54ZM39,18.3a5.16,5.16,0,0,1,3.65,8.86A5.42,5.42,0,0,1,39,28.81a5,5,0,0,1-5.21-5.21,5.42,5.42,0,0,1,1.65-3.73A5,5,0,0,1,39,18.3ZM24.2,33.15a5,5,0,0,1,5.21,5.21,5.42,5.42,0,0,1-1.65,3.73,5.16,5.16,0,1,1-7.29-7.29A5.42,5.42,0,0,1,24.2,33.15ZM9.35,48A5,5,0,0,1,13,49.56a5,5,0,0,1,0,7.29,5,5,0,0,1-7.29,0,5,5,0,0,1,0-7.29A5,5,0,0,1,9.35,48ZM53.81,30.46a7.71,7.71,0,0,1,7.81,7.81,7.81,7.81,0,1,1-13.37-5.56A7.55,7.55,0,0,1,53.81,30.46ZM38.87,45.39a7.81,7.81,0,1,1-5.56,13.37A7.81,7.81,0,0,1,38.87,45.39ZM68.65,28.81a5.42,5.42,0,0,1-3.73-1.65,5.16,5.16,0,1,1,7.29-7.29,5.42,5.42,0,0,1,1.65,3.73A5,5,0,0,1,68.65,28.81Zm-44.54,34a5,5,0,0,1,3.65,1.56,5.42,5.42,0,0,1,1.65,3.73,5,5,0,0,1-5.21,5.21,5.42,5.42,0,0,1-3.73-1.65A5.21,5.21,0,0,1,24.11,62.76ZM77.77,14.31q-1.74-1.74.17-3.65t3.65-.17a2.39,2.39,0,0,1,0,3.82A2.39,2.39,0,0,1,77.77,14.31ZM14.91,77.17a2.39,2.39,0,0,1,0,3.82,2.39,2.39,0,0,1-3.82,0q-1.74-1.74.17-3.65T14.91,77.17ZM68.74,45.39a7.71,7.71,0,1,1-5.56,2.26A7.55,7.55,0,0,1,68.74,45.39ZM53.81,60.33a7.71,7.71,0,1,1-5.56,2.26A7.55,7.55,0,0,1,53.81,60.33ZM83.5,43.66a5,5,0,0,1-3.65-1.56,5.42,5.42,0,0,1-1.65-3.73,5,5,0,0,1,5.21-5.21,5.42,5.42,0,0,1,3.73,1.65A5.21,5.21,0,0,1,83.5,43.66ZM39,77.61a5.42,5.42,0,0,1,3.73,1.65,5.16,5.16,0,1,1-7.29,7.29,5.42,5.42,0,0,1-1.65-3.73A5,5,0,0,1,39,77.61ZM92.71,29.24a2.39,2.39,0,0,1,0-3.82,2.39,2.39,0,0,1,3.82,0q1.73,1.73-.17,3.65T92.71,29.24ZM29.84,92.11q1.73,1.73-.17,3.65T26,95.93a2.39,2.39,0,0,1,0-3.82A2.39,2.39,0,0,1,29.84,92.11ZM98.26,48a5.34,5.34,0,1,1-3.65,1.56A5,5,0,0,1,98.26,48ZM83.5,62.76a5.16,5.16,0,0,1,3.65,8.86,5.42,5.42,0,0,1-3.73,1.65,5,5,0,0,1-5.21-5.21,5.42,5.42,0,0,1,1.65-3.73A5,5,0,0,1,83.5,62.76ZM68.65,77.61a5,5,0,0,1,5.21,5.21,5.42,5.42,0,0,1-1.65,3.73,5.16,5.16,0,1,1-7.29-7.29A5.42,5.42,0,0,1,68.65,77.61ZM53.81,92.45A5.34,5.34,0,1,1,50.16,94,5,5,0,0,1,53.81,92.45ZM92.71,81a2.39,2.39,0,0,1,0-3.82q1.73-1.73,3.65.17T96.53,81A2.39,2.39,0,0,1,92.71,81ZM81.59,92.11a2.39,2.39,0,0,1,0,3.82q-1.74,1.74-3.65-.17t-0.17-3.65A2.39,2.39,0,0,1,81.59,92.11Z" transform="translate(-4.14 -3.54)"/></svg>