<svg id="Layer_1" data-name="Layer 1" xmlns="http://www.w3.org/2000/svg" viewBox="0 0 106.69 106.76"><title>climate</title><path d="M84.9,97.33A46.37,46.37,0,0,1,24.42,28.24a3.5,3.5,0,0,0-5.3-4.58,53.37,53.37,0,0,0,70,79.28l1.72,2.28L92.1,96.3,83.17,95Z" transform="translate(-6.23 -5.14)"/><path d="M104,29l2.28-1.71L97.34,26l-1.27,8.93,2.31-1.73a46.31,46.31,0,0,1-3.78,55.69,3.5,3.5,0,0,0,5.29,4.59A53.31,53.31,0,0,0,104,29Z" transform="translate(-6.23 -5.14)"/><path d="M34.28,19.63a46.34,46.34,0,0,1,55.56,3.78,3.5,3.5,0,0,0,4.58-5.29A53.35,53.35,0,0,0,30.08,14l-1.71-2.29-1.29,8.93L36,21.95Z" transform="translate(-6.23 -5.14)"/><path d="M97.61,61.4a3.09,3.09,0,1,0,0-6.18H84.42a24.55,24.55,0,0,0-1.68-6.48l8.52-4.85-3.06-5.37L79.7,43.37a25,25,0,0,0-4.61-4.71l5-8.4-5.3-3.18-5,8.4a24.55,24.55,0,0,0-7.58-2V20.09a2.78,2.78,0,1,0-5.56,0V40.62L42.77,28.08a2.85,2.85,0,1,0-4,4L56.65,47.88v7.71h-7L33.18,37.68a2.85,2.85,0,1,0-4,4L42.35,55.59H21.16a2.78,2.78,0,1,0,0,5.56h21.2L29.14,75a2.85,2.85,0,0,0,0,4h0a2.85,2.85,0,0,0,4.07,0L49.62,61.14h7v8.38L38.75,84.62a2.85,2.85,0,1,0,4,4L56.65,76.79V96.64a2.78,2.78,0,0,0,5.56,0V82.79a24.55,24.55,0,0,0,6.91-1.69l5,8.77,5.37-3.06-5-8.73a25,25,0,0,0,4.66-4.49l8.57,5.14,3.18-5.3-8.52-5.11a24.55,24.55,0,0,0,2-6.93H97.61ZM62.21,77V39.35A19,19,0,0,1,62.21,77Z" transform="translate(-6.23 -5.14)"/></svg>