<svg id="Layer_1" data-name="Layer 1" xmlns="http://www.w3.org/2000/svg" viewBox="0 0 100 100"><title>computing-data-services</title><path d="M46.89,30.27l7.69-7.69,7.69,7.69L54.58,38ZM35.45,41.72L43.14,34l7.69,7.69-7.69,7.69ZM24,53.17l7.69-7.69,7.69,7.69-7.69,7.69ZM58.34,41.72L66,34l7.69,7.69L66,49.41ZM46.89,53.17l7.69-7.69,7.69,7.69-7.69,7.69ZM35.45,64.61l7.69-7.69,7.69,7.69L43.14,72.3Zm42-19.14,7.69,7.69-7.69,7.69-7.69-7.69ZM58.34,64.61L66,56.92l7.69,7.69L66,72.3ZM46.89,76.06l7.69-7.69,7.69,7.69-7.69,7.69Z" transform="translate(-4.58 -3.17)"/><path d="M86.2,79.73l-2.59-2.59L78.56,82.2l2.59,2.59a3.66,3.66,0,0,1,0,5.18h0A3.66,3.66,0,0,1,76,90l-2.59-2.59L59.64,101.12a7.27,7.27,0,0,1-10.11,0L35.78,87.38,33.19,90A3.66,3.66,0,0,1,28,90h0a3.66,3.66,0,0,1,0-5.18l2.59-2.59-5.06-5.06L23,79.73a3.66,3.66,0,0,1-5.18,0h0a3.66,3.66,0,0,1,0-5.18L20.37,72,6.63,58.22a7.27,7.27,0,0,1,0-10.11L20.37,34.37l-2.59-2.59a3.66,3.66,0,0,1,0-5.18h0a3.66,3.66,0,0,1,5.18,0l2.59,2.59,5.06-5.06L28,21.55a3.66,3.66,0,0,1,0-5.18h0a3.66,3.66,0,0,1,5.18,0L35.78,19,49.53,5.21a7.27,7.27,0,0,1,10.11,0L73.38,19,76,16.37a3.66,3.66,0,0,1,5.18,0h0a3.66,3.66,0,0,1,0,5.18l-2.59,2.59,5.06,5.06L86.2,26.6a3.66,3.66,0,0,1,5.18,0h0a3.66,3.66,0,0,1,0,5.18l-2.59,2.59,13.74,13.74a7.27,7.27,0,0,1,0,10.11L88.79,72l2.59,2.59a3.66,3.66,0,0,1,0,5.18h0A3.66,3.66,0,0,1,86.2,79.73ZM54.58,96.06l42.9-42.9-42.9-42.9-42.9,42.9Z" transform="translate(-4.58 -3.17)"/></svg>