<svg id="Layer_1" data-name="Layer 1" xmlns="http://www.w3.org/2000/svg" viewBox="0 0 99.01 99.01"><title>computational-resources</title><path d="M46,4.59a8.7,8.7,0,0,1,11.89,0L52,10.53ZM34.29,16.34l5.95-5.95,5.95,5.95-5.95,5.95ZM22.54,28.09l5.81-5.81,5.95,5.95L28.48,34ZM10.64,40L16.59,34,22.54,40l-5.95,5.95ZM4.84,57.69a8.7,8.7,0,0,1,0-11.89l5.95,5.95ZM69.69,16.34l-5.95,5.95L57.8,16.34l5.95-5.95ZM22.4,51.74L52,22.15,81.58,51.74,52,81.33ZM10.64,63.49l5.95-5.95,5.95,5.95-5.95,5.95ZM52,34l-17.7,17.7L52,69.44l17.7-17.7Zm29.45-5.95L75.5,34l-5.81-5.81,5.95-5.95ZM22.54,75.38l5.95-5.95,5.81,5.81-5.95,5.95ZM81.44,40L87.39,34,93.33,40l-5.95,5.95ZM34.29,87.14l5.95-5.95,5.95,5.95-5.95,5.95ZM99.14,45.79a8.7,8.7,0,0,1,0,11.89L93.2,51.74Zm-17.7,17.7,5.95-5.95,5.95,5.95-5.95,5.95ZM69.69,75.25l5.81-5.81,5.95,5.95-5.81,5.81ZM57.8,87.14l5.95-5.95,5.95,5.95-5.95,5.95ZM46,98.89L52,92.95l5.95,5.95A8.7,8.7,0,0,1,46,98.89Z" transform="translate(-2.49 -2.24)"/></svg>