<svg id="Layer_1" data-name="Layer 1" xmlns="http://www.w3.org/2000/svg" viewBox="0 0 106.7 106.76"><title>earth-system-sciences</title><path d="M30.1,28.65A37.6,37.6,0,0,1,57.68,17.2,37.61,37.61,0,0,1,85.26,28.65,37.61,37.61,0,0,1,96.71,56.23,37.6,37.6,0,0,1,85.26,83.81,37.59,37.59,0,0,1,57.68,95.26,37.58,37.58,0,0,1,30.1,83.81,37.58,37.58,0,0,1,18.65,56.23,37.6,37.6,0,0,1,30.1,28.65ZM53.83,87.2V79.69A8.15,8.15,0,0,1,46,71.81V68L27.26,49.27a28.66,28.66,0,0,0-.92,7,29.83,29.83,0,0,0,8,20.71A30.84,30.84,0,0,0,53.83,87.2Zm26.94-9.9A29.73,29.73,0,0,0,89,56.23a31.06,31.06,0,0,0-19.61-29v1.65A7.26,7.26,0,0,1,67,34.33a7.69,7.69,0,0,1-5.5,2.29h-7.7V44.5a3.59,3.59,0,0,1-1.19,2.75,4,4,0,0,1-2.84,1.1h-7.7v7.88H65.56a3.76,3.76,0,0,1,3.85,3.85V71.81h3.85Q78.76,71.81,80.77,77.3Z" transform="translate(-4.35 -2.8)"/><path d="M57.7,109.57A53.39,53.39,0,0,1,17.24,21.33a3.5,3.5,0,0,1,5.3,4.58A46.37,46.37,0,0,0,83.86,94.45a3.5,3.5,0,1,1,4,5.77A53.12,53.12,0,0,1,57.7,109.57Z" transform="translate(-4.35 -2.8)"/><polygon points="84.6 100.09 76.94 89.89 85.86 91.16 84.6 100.09"/><path d="M95.36,92.33a3.5,3.5,0,0,1-2.64-5.79A46.32,46.32,0,0,0,95.94,30a3.5,3.5,0,1,1,5.77-4A53.32,53.32,0,0,1,98,91.13,3.49,3.49,0,0,1,95.36,92.33Z" transform="translate(-4.35 -2.8)"/><polygon points="100.03 22.12 89.83 29.77 91.1 20.85 100.03 22.12"/><path d="M90.25,21.93A3.48,3.48,0,0,1,88,21.08a46.34,46.34,0,0,0-56.4-3.23,3.5,3.5,0,0,1-3.95-5.78,53.35,53.35,0,0,1,64.92,3.72A3.5,3.5,0,0,1,90.25,21.93Z" transform="translate(-4.35 -2.8)"/><polygon points="22.14 6.59 29.78 16.81 20.85 15.52 22.14 6.59"/></svg>