<svg id="Layer_1" data-name="Layer 1" xmlns="http://www.w3.org/2000/svg" viewBox="0 0 85 100.21"><title>education-training</title><path d="M49.62,13.17a10.22,10.22,0,0,1,7.61,3.25A10.22,10.22,0,0,1,60.48,24a10.21,10.21,0,0,1-3.26,7.61,10.51,10.51,0,0,1-15.22,0A10.19,10.19,0,0,1,38.75,24,10.21,10.21,0,0,1,42,16.42a10.21,10.21,0,0,1,7.61-3.26m0-8a18.13,18.13,0,0,0-13.27,5.6A18.13,18.13,0,0,0,30.75,24a18.11,18.11,0,0,0,5.6,13.27,18.51,18.51,0,0,0,26.53,0A18.13,18.13,0,0,0,68.48,24a18.15,18.15,0,0,0-5.6-13.27,18.15,18.15,0,0,0-13.27-5.6h0Z" transform="translate(-7.17 -5.17)"/><path d="M90.28,33.78a4,4,0,0,0-3.88-.19L49.17,51.92,12.94,34a4,4,0,0,0-5.77,3.59V79.11a4,4,0,0,0,2,3.46l38.5,22.27a4,4,0,0,0,4,0l38.5-22.27a4,4,0,0,0,2-3.46V37.18A4,4,0,0,0,90.28,33.78Zm-6.11,43-31,17.93V69.33a4,4,0,0,0-8,0V94.15l-30-17.36V44.06L47.4,60a4,4,0,0,0,3.54,0L84.17,43.61V76.8Z" transform="translate(-7.17 -5.17)"/></svg>