<svg id="Layer_1" data-name="Layer 1" xmlns="http://www.w3.org/2000/svg" viewBox="0 0 100 100.01"><title>field-campaigns</title><path d="M47.72,101.15L35.5,78l-14,14,1.1,7.48a3,3,0,0,1-.84,2.53h0a3,3,0,0,1-4.69-.64l-4.53-8.06L4.64,88.83A3,3,0,0,1,4,84.14H4a3,3,0,0,1,2.5-.84l7.38,1,14-14L4.78,58.2a3,3,0,0,1-.72-4.73l1-1a3,3,0,0,1,2.76-.8l31.5,7.16,14-14a5.41,5.41,0,0,1,7.65,7.65l-14,14L54.24,98.1a3,3,0,0,1-.79,2.77l-1,1A3,3,0,0,1,47.72,101.15Z" transform="translate(-3.12 -2.81)"/><path d="M55,2.81A46.38,46.38,0,0,1,89.06,16.86a46.38,46.38,0,0,1,14.06,34.05A46.17,46.17,0,0,1,92.28,81.46a4.34,4.34,0,0,1-6.4.33l-0.13-.13a4.35,4.35,0,0,1-.2-5.89,37.66,37.66,0,0,0,8.88-24.85A38,38,0,0,0,82.83,23.09,37.94,37.94,0,0,0,55,11.5a37.64,37.64,0,0,0-24.85,8.88,4.35,4.35,0,0,1-5.89-.2L24.14,20a4.34,4.34,0,0,1,.33-6.4A46.17,46.17,0,0,1,55,2.81Zm0,17.53a29.44,29.44,0,0,1,21.59,9,29.44,29.44,0,0,1,9,21.59A29.21,29.21,0,0,1,79.8,68.81a4.3,4.3,0,0,1-6.48.42h0a4.3,4.3,0,0,1-.43-5.58,21.09,21.09,0,0,0,4-12.73A21.77,21.77,0,0,0,55,29a21.09,21.09,0,0,0-12.73,4,4.3,4.3,0,0,1-5.58-.43h0a4.3,4.3,0,0,1,.42-6.48A29.21,29.21,0,0,1,55,20.34Z" transform="translate(-3.12 -2.81)"/></svg>