<svg id="Layer_1" data-name="Layer 1" xmlns="http://www.w3.org/2000/svg" viewBox="0 0 95 111"><title>government-relations</title><path d="M94.55,77.75H98a5.5,5.5,0,0,0,0-11H83.55v-12a5.5,5.5,0,0,0-.42-11A26.87,26.87,0,0,0,57.55,21.29V14.75h7v-8h-11V21.36A26.83,26.83,0,0,0,29,43.75H28a5.5,5.5,0,0,0,0,11h0.5v12H14a5.5,5.5,0,0,0,0,11h3.5v29h-9v11h95v-11h-9v-29Zm-11,29h-11v-29h11v29Zm-22-29v29h-11v-29h11Zm0-11v-12h11v12h-11ZM56,32.25c7.47,0,13.79,4.39,15.81,11.5H40.23C42.26,36.64,48.58,32.25,56,32.25Zm-16.5,22.5h11v12h-11v-12Zm-11,23h11v29h-11v-29Z" transform="translate(-8.55 -6.75)"/></svg>