<svg id="Layer_1" data-name="Layer 1" xmlns="http://www.w3.org/2000/svg" viewBox="0 0 150.06 93.22"><title>labs</title><rect y="54.95" width="149.06" height="7.75" rx="3.87" ry="3.87"/><rect y="68.96" width="17.74" height="7.75" rx="3.87" ry="3.87"/><rect x="132.33" y="68.96" width="17.74" height="7.75" rx="3.87" ry="3.87"/><rect x="23.44" y="68.98" width="102.17" height="7.75" rx="3.87" ry="3.87"/><rect x="47.68" y="85.48" width="53.69" height="7.75" rx="3.87" ry="3.87"/><path d="M98.25,34.18a43,43,0,0,1,11-1.6,43.08,43.08,0,0,1,11,1.6,31.69,31.69,0,0,1,11,5.32q5,3.73,5,8.34V65.2H82.33V47.84q0-4.61,5-8.34A31.67,31.67,0,0,1,98.25,34.18ZM123,42.79a33.57,33.57,0,0,0-27.42,0q-6.78,2.93-6.78,5.06V57.93h41V47.84Q129.77,45.71,123,42.79Z" transform="translate(-4.16 -3.2)"/><path d="M118.75,7.22a13.15,13.15,0,0,0-18.94,0,13.17,13.17,0,0,0-3.95,9.55,12.9,12.9,0,0,0,3.95,9.47,13.34,13.34,0,0,0,18.94,0,12.91,12.91,0,0,0,3.95-9.47A13.18,13.18,0,0,0,118.75,7.22Zm-4.42,14.52a7.45,7.45,0,0,1-10.1,0,6.6,6.6,0,0,1-2.05-5,7.1,7.1,0,1,1,14.2,0A6.61,6.61,0,0,1,114.33,21.74Z" transform="translate(-4.16 -3.2)"/><path d="M36.91,34.18a43,43,0,0,1,11-1.6,43.08,43.08,0,0,1,11,1.6,31.69,31.69,0,0,1,11,5.32q5,3.73,5,8.34V65.2H21V47.84q0-4.61,5-8.34A31.67,31.67,0,0,1,36.91,34.18Zm24.74,8.61a33.57,33.57,0,0,0-27.42,0q-6.78,2.93-6.78,5.06V57.93h41V47.84Q68.43,45.71,61.66,42.79Z" transform="translate(-4.16 -3.2)"/><path d="M57.41,7.22a13.15,13.15,0,0,0-18.94,0,13.17,13.17,0,0,0-3.95,9.55,12.9,12.9,0,0,0,3.95,9.47,13.34,13.34,0,0,0,18.94,0,12.91,12.91,0,0,0,3.95-9.47A13.18,13.18,0,0,0,57.41,7.22ZM53,21.74a7.45,7.45,0,0,1-10.1,0,6.6,6.6,0,0,1-2.05-5,7.1,7.1,0,1,1,14.2,0A6.61,6.61,0,0,1,53,21.74Z" transform="translate(-4.16 -3.2)"/></svg>