<svg id="Layer_1" data-name="Layer 1" xmlns="http://www.w3.org/2000/svg" viewBox="0 0 106.78 106.79"><title>management</title><path d="M65.81,39.93a17,17,0,1,1,12-5A16.93,16.93,0,0,1,65.81,39.93Zm0-25.95a9,9,0,1,0,6.35,2.63A9,9,0,0,0,65.81,14Z" transform="translate(-7.11 -5.99)"/><path d="M96.92,71.05a17,17,0,1,1,12-5h0A16.87,16.87,0,0,1,96.92,71.05Zm0-26a9,9,0,1,0,6.35,15.33h0A9,9,0,0,0,96.92,45.09Z" transform="translate(-7.11 -5.99)"/><path d="M34.69,71a17,17,0,1,1,12-5h0A16.93,16.93,0,0,1,34.69,71Zm0-25.95A9,9,0,1,0,41,47.72,9,9,0,0,0,34.69,45.09Z" transform="translate(-7.11 -5.99)"/><path d="M65.81,102.16a17,17,0,1,1,12-5h0A16.93,16.93,0,0,1,65.81,102.16Zm0-25.95a9,9,0,1,0,6.35,15.33h0A9,9,0,0,0,65.81,76.21Z" transform="translate(-7.11 -5.99)"/><path d="M24.09,112.77a17,17,0,1,1,12-5h0A16.87,16.87,0,0,1,24.09,112.77Zm0-26a9,9,0,1,0,6.35,15.33h0A9,9,0,0,0,24.09,86.81Z" transform="translate(-7.11 -5.99)"/><rect x="19.24" y="71.24" width="18.06" height="8" transform="translate(-58.94 75.98) rotate(-74.2)"/><rect x="40.87" y="33.36" width="19" height="8" transform="translate(-18.78 40.58) rotate(-45)"/><rect x="61.97" y="35.74" width="8" height="36.4" transform="translate(3.15 112.44) rotate(-88.45)"/><rect x="46.38" y="60.68" width="8" height="17" transform="translate(-41.28 49.9) rotate(-45)"/></svg>