<svg id="Layer_1" data-name="Layer 1" xmlns="http://www.w3.org/2000/svg" viewBox="0 0 101.14 101.14"><title>modeling-assimilation</title><path d="M60.64,100L48,87.45l-5.49,5.49,12,12a8.88,8.88,0,0,0,12.15,0l12-12-5.49-5.49Z" transform="translate(-10.07 -6.2)"/><path d="M60.64,13.5L73.23,26.1l5.49-5.49-12-12a8.88,8.88,0,0,0-12.15,0l-12,12L48,26.1Z" transform="translate(-10.07 -6.2)"/><path d="M108.81,50.7l-12-12-5.49,5.49,12.59,12.59L91.32,69.37l5.49,5.49,12-12A8.88,8.88,0,0,0,108.81,50.7Z" transform="translate(-10.07 -6.2)"/><path d="M36.49,38.13C39.38,40.3,41.27,42,41.27,42c6.55,5.47,10.69,9,18,9.93A26.22,26.22,0,0,0,88.65,31.12l3.79,0.49L85.81,20.44l-8.73,9.14,3.73,0.49a18.2,18.2,0,0,1-6.54,10,18.31,18.31,0,0,1-14.3,4c-5.16-.66-12.43-6.94-12.43-6.94-1.77-1.66-3.53-3.26-5.31-4.79A6.3,6.3,0,1,0,36.49,38.13Z" transform="translate(-10.07 -6.2)"/><path d="M81,51.05l1.88,2.38A32.36,32.36,0,0,1,58.25,59.6c-7.76-1.15-12.51-3.19-20.47-10.47-2.5-2.93-8.07-7.32-13-10.14l-0.31-.31-12,12a8.88,8.88,0,0,0,0,12.15l7.83,7.83h0.05A14.93,14.93,0,0,0,22,72c8.3,5.72,19.52,13.44,36.4,12.15l0.5,4.07,9-9L56.95,72.59l0.39,3.14c-13,.77-23.87-5.86-31.39-11a33.9,33.9,0,0,1-8-8.6l7.41-7.41c2.89,1.37,4,3.23,6.9,6.09A43.83,43.83,0,0,0,57.6,67.55c11.34,1.46,21.67-.78,30.57-7.38l2.58,3.22,3-12.41Z" transform="translate(-10.07 -6.2)"/></svg>