<svg id="Layer_1" data-name="Layer 1" xmlns="http://www.w3.org/2000/svg" viewBox="0 0 112.11 69.94"><title>models</title><path d="M13.63,20.35a6.28,6.28,0,0,0,2.46-5,34.06,34.06,0,0,1,23.15-4.59C49,12.1,63.11,24.47,63.11,24.47c6.55,5.47,10.69,9,18,9.93a25.6,25.6,0,0,0,20-5.47,25.37,25.37,0,0,0,9.35-15.3l3.79,0.49L107.64,2.94l-8.73,9.14,3.73,0.49a18.2,18.2,0,0,1-6.54,10,18.31,18.31,0,0,1-14.3,4c-5.16-.66-12.43-6.94-12.43-6.94C60.71,11.54,52.25,4.43,40.23,2.84c-10.74-1.42-20.47.58-29.35,6.32A6.3,6.3,0,1,0,13.63,20.35Z" transform="translate(-3.5 -2.4)"/><path d="M102.85,33.55l1.88,2.38A32.36,32.36,0,0,1,80.09,42.1C72.32,41,67.57,38.92,59.62,31.64,55.42,26.72,44.7,18.87,38,18.51c-7.73-.42-14.52.78-20.54,5.39a26.46,26.46,0,0,0-10,15.48A6.3,6.3,0,1,0,15.63,41c-0.1-.14-0.21-0.26-0.33-0.38a19,19,0,0,1,7-10.31,19.05,19.05,0,0,1,14.83-3.8c9.3,1.36,11.76,5.68,17,10.86A43.83,43.83,0,0,0,79.43,50a40.35,40.35,0,0,0,30.3-7.76l2.84,3.61,3-12.41Z" transform="translate(-3.5 -2.4)"/><path d="M79.08,59.38c-13.58-.65-22-8-28.91-14-5.23-4.55-11-9.58-17.37-7.86a6.31,6.31,0,1,0,3.64,8.72c1.52,0.49,3.75,2.18,7.92,5.81C52,58.69,62.26,67.62,79.17,68.24l0,4.1,10-8L79.05,56.63Z" transform="translate(-3.5 -2.4)"/></svg>