<svg id="Layer_1" data-name="Layer 1" xmlns="http://www.w3.org/2000/svg" viewBox="0 0 99.2 82.91"><title>opportunities</title><path d="M73.07,38.89A51.09,51.09,0,0,1,92.28,43q10.13,4.12,10.13,10.66V85.92H3.21V53.67q0-6.54,10.13-10.66a51.08,51.08,0,0,1,19.21-4.12,49.31,49.31,0,0,1,20.26,4.64A49.28,49.28,0,0,1,73.07,38.89ZM55.13,79.17V53.67q0-2.11-7.49-5.07a40.88,40.88,0,0,0-15.09-3,40.87,40.87,0,0,0-15.09,3q-7.5,3-7.49,5.07v25.5H55.13ZM43.73,29.82a15.25,15.25,0,0,1-11.19,4.64,15.24,15.24,0,0,1-11.19-4.64,15.23,15.23,0,0,1-4.64-11.19A14.91,14.91,0,0,1,21.36,7.55,15.43,15.43,0,0,1,32.54,3,15.44,15.44,0,0,1,43.73,7.55a14.92,14.92,0,0,1,4.64,11.08A15.25,15.25,0,0,1,43.73,29.82ZM38.88,12.4a8.92,8.92,0,0,0-12.66,0,8.36,8.36,0,0,0-2.74,6.23A8.68,8.68,0,0,0,26.21,25a8.68,8.68,0,0,0,12.66,0,8.7,8.7,0,0,0,2.74-6.33A8.37,8.37,0,0,0,38.88,12.4ZM84.25,29.82a15.8,15.8,0,0,1-22.37,0,15.23,15.23,0,0,1-4.64-11.19A14.91,14.91,0,0,1,61.88,7.55a16.06,16.06,0,0,1,22.37,0A14.92,14.92,0,0,1,88.9,18.63,15.25,15.25,0,0,1,84.25,29.82Zm11.4,49.35V53.67q0-2.11-7.49-5.07a40.88,40.88,0,0,0-15.09-3,46.39,46.39,0,0,0-13.51,2.53,8.54,8.54,0,0,1,2.32,5.49v25.5H95.65ZM79.4,12.4a8.92,8.92,0,0,0-12.66,0A8.36,8.36,0,0,0,64,18.63,8.68,8.68,0,0,0,66.74,25,8.68,8.68,0,0,0,79.4,25a8.7,8.7,0,0,0,2.74-6.33A8.37,8.37,0,0,0,79.4,12.4Z" transform="translate(-3.21 -3.01)"/></svg>