<svg id="Layer_1" data-name="Layer 1" xmlns="http://www.w3.org/2000/svg" viewBox="0 0 104.2 100.19"><title>partnership</title><path d="M10,90.28a4,4,0,0,1-4-4V13.84a9,9,0,0,1,9.09-9.09h67.1a9.38,9.38,0,0,1,6.47,2.51,8.74,8.74,0,0,1,2.86,6.58V60.36a8.73,8.73,0,0,1-2.86,6.57,9.39,9.39,0,0,1-6.47,2.52H32.23L12.82,89.09A4,4,0,0,1,10,90.28Zm5.09-77.52A1,1,0,0,0,14,13.84v62.7L27.72,62.63a4,4,0,0,1,2.84-1.19h51.6a1.37,1.37,0,0,0,1-.4,0.77,0.77,0,0,0,.29-0.69V13.84a0.78,0.78,0,0,0-.29-0.7,1.36,1.36,0,0,0-1-.39H15.06Z" transform="translate(-5.97 -4.76)"/><path d="M106.17,104.95a4,4,0,0,1-2.83-1.17L83.92,84.36H46.66a9,9,0,0,1-9.09-9.09V66.85h8v8.42a1,1,0,0,0,1.09,1.09H85.57a4,4,0,0,1,2.83,1.17l13.76,13.76V34.44a1,1,0,0,0-1.09-1.09H89.66v-8h11.42a9,9,0,0,1,9.09,9.09v66.51A4,4,0,0,1,106.17,104.95Z" transform="translate(-5.97 -4.76)"/><path d="M41.43,67.77a4,4,0,0,1-4-4V34.27a8.73,8.73,0,0,1,2.86-6.57,9.39,9.39,0,0,1,6.47-2.52H86.84a4,4,0,0,1,0,8H46.76a1.37,1.37,0,0,0-1,.4,0.77,0.77,0,0,0-.28.69v29.5A4,4,0,0,1,41.43,67.77Z" transform="translate(-5.97 -4.76)"/></svg>