<svg id="Layer_1" data-name="Layer 1" xmlns="http://www.w3.org/2000/svg" viewBox="0 0 100 76"><title>press-room</title><rect x="50" y="32" width="30" height="25"/><rect x="14" y="32" width="32" height="6"/><rect x="14" y="42" width="32" height="6"/><rect x="14" y="52" width="32" height="5"/><rect x="13" y="14" width="66" height="13"/><path d="M102.68,20.72V15.8a7.77,7.77,0,0,0-2.18-5.72A7.34,7.34,0,0,0,95.17,7.5H16.7a7.88,7.88,0,0,0-5.58,2.57A8,8,0,0,0,8.68,15.8V75.4A7.82,7.82,0,0,0,11.12,81,7.77,7.77,0,0,0,16.7,83.5H95.17a7.66,7.66,0,0,0,1.47-.14V83.5h3.79a8.34,8.34,0,0,0,8.26-8.11V26.78C108.68,23.69,105.68,21.14,102.68,20.72Zm-8,54.79h-78v-60h78v60Z" transform="translate(-8.68 -7.5)"/></svg>