<svg id="Layer_1" data-name="Layer 1" xmlns="http://www.w3.org/2000/svg" viewBox="0 0 96.09 96.09"><title>scientific-program-support</title><path d="M54.15,55.5a27.67,27.67,0,0,0,20.37,8.29A28.16,28.16,0,0,0,95,55.5a27.45,27.45,0,0,0,8.43-20.37A27.92,27.92,0,0,0,95,14.62,27.92,27.92,0,0,0,74.52,6.19a27.45,27.45,0,0,0-20.37,8.43,28.16,28.16,0,0,0-8.29,20.51,28.79,28.79,0,0,0,2.7,12.56L39,53.83a18.55,18.55,0,0,0-12.24-4.37A18.72,18.72,0,0,0,13,55.08a19,19,0,0,0,0,27,18.7,18.7,0,0,0,13.77,5.62,18.64,18.64,0,0,0,13.49-5.48,19.77,19.77,0,0,0,1.64-1.84L60.24,89.2c0,0.33,0,.66,0,1a12,12,0,0,0,12.08,12.08,11.19,11.19,0,0,0,8.43-3.51,12.58,12.58,0,0,0,0-17.14,11.21,11.21,0,0,0-8.43-3.51,11.66,11.66,0,0,0-8.57,3.51l-0.23.25L45.35,73.14a20.66,20.66,0,0,0,.51-4.58A19.05,19.05,0,0,0,44,60.12l9-5.8C53.4,54.72,53.77,55.11,54.15,55.5ZM69.36,87.29a3.69,3.69,0,0,1,2.91-1.17,3.22,3.22,0,0,1,2.65,1,4.59,4.59,0,0,1,0,6.07,3.21,3.21,0,0,1-2.65,1A4.12,4.12,0,0,1,69.36,87.29ZM34.66,76.46a10.7,10.7,0,0,1-7.9,3.21,10.78,10.78,0,0,1-8.12-3.28,11,11,0,0,1,0-15.65,10.79,10.79,0,0,1,8.11-3.28,10.69,10.69,0,0,1,7.9,3.21,10.35,10.35,0,0,1,3.21,7.9A10.35,10.35,0,0,1,34.66,76.46Zm25.2-56.24a19.58,19.58,0,0,1,14.66-6,20,20,0,0,1,14.85,6.09,20,20,0,0,1,6.09,14.85,19.58,19.58,0,0,1-6,14.67,20.27,20.27,0,0,1-14.9,6A20.31,20.31,0,0,1,53.86,35.13,20.27,20.27,0,0,1,59.86,20.23Z" transform="translate(-7.37 -6.19)"/></svg>