<svg id="Layer_1" data-name="Layer 1" xmlns="http://www.w3.org/2000/svg" viewBox="0 0 103.13 106.32"><title>scientific-data-software</title><path d="M65.36,14V83.12H52V14h13.4m36.86,22.12v27.7L88.83,50.39V36.13h13.4M28.5,53.56V83.12H15.1V53.56H28.5M69,6H48.31A4.34,4.34,0,0,0,44,10.34V91.12h29.4V10.34A4.34,4.34,0,0,0,69,6h0Zm36.86,22.12H85.17a4.34,4.34,0,0,0-4.34,4.34V53.69l29.4,29.48V32.47a4.34,4.34,0,0,0-4.34-4.34h0ZM32.16,45.56H11.44A4.34,4.34,0,0,0,7.1,49.9V91.12H36.5V49.9a4.34,4.34,0,0,0-4.34-4.34h0Z" transform="translate(-7.1 -6)"/><path d="M81,64.94l26.19,26.53a2.25,2.25,0,0,1-1.4,3.82L93.93,96.36l-9.18,7.58a2.25,2.25,0,0,1-3.68-1.73Z" transform="translate(-7.1 -6)"/><rect x="79.31" y="93.02" width="30.7" height="8.63" rx="2.52" ry="2.52" transform="translate(138.46 -34.55) rotate(66.22)"/></svg>