<svg id="Layer_1" data-name="Layer 1" xmlns="http://www.w3.org/2000/svg" viewBox="0 0 109.03 109.03"><title>sun</title><path d="M111.46,56.5H87.7a33.08,33.08,0,0,0-1.86-7l7-4a3.47,3.47,0,1,0-3.43-6l-7,4a27.75,27.75,0,0,0-5-5.09l4.15-6.92a3.47,3.47,0,1,0-5.95-3.57L71.29,34.8a25.67,25.67,0,0,0-7.79-2.1V8.94a3.5,3.5,0,0,0-7,0V32.7a31.43,31.43,0,0,0-6.8,1.86l-3.88-6.88a3.33,3.33,0,0,0-4.68-1.18h0a3.34,3.34,0,0,0-1.28,4.61l4,6.95a27.56,27.56,0,0,0-5.09,5l-6.92-4.17a3.46,3.46,0,1,0-3.57,5.94l6.91,4.13a24.37,24.37,0,0,0-2.1,7.58H9.36a3.5,3.5,0,0,0,0,7H33.12a33,33,0,0,0,1.86,7l-7,4a3.47,3.47,0,1,0,3.43,6l7-4a27.75,27.75,0,0,0,5,5.09l-4.15,6.92a3.47,3.47,0,1,0,5.95,3.57l3.93-6.91a33.83,33.83,0,0,0,7.38,2.1V111a3.5,3.5,0,0,0,7,0V87.28a23.66,23.66,0,0,0,7.21-1.86l4.08,7a3.52,3.52,0,0,0,4.78,1.3A3.48,3.48,0,0,0,80.89,89l-4-7A27.78,27.78,0,0,0,82,77l6.92,4.15a3.47,3.47,0,0,0,3.57-5.95l-6.91-4.13A24.33,24.33,0,0,0,87.7,63.5h23.76A3.5,3.5,0,0,0,111.46,56.5Zm-51,25.08A21.59,21.59,0,1,1,82,60,21.62,21.62,0,0,1,60.41,81.58Z" transform="translate(-5.89 -5.47)"/></svg>