<svg id="Layer_1" data-name="Layer 1" xmlns="http://www.w3.org/2000/svg" viewBox="0 0 97.5 97.5"><title>symbol-ucar</title><path d="M50.84,37.54a2.71,2.71,0,0,1-4.51,2.13l-0.21-.17L22.33,18s-1.6-1.64-.23-2.9c0,0,.79-1,2.48,0l13.75,8.74S40.9,25.6,42.76,25l0.09,0c1.77-.87,2.32-3.91,2.32-3.91L48.6,5.07c0.52-1.86,1.76-1.75,1.76-1.75,1.86-.1,1.9,2.2,1.9,2.2l-1.43,32h0Z" transform="translate(-5.4 -3.3)"/><path d="M57.45,66.55a2.69,2.69,0,0,1,1.69-2.62,2.65,2.65,0,0,1,2.82.48l0.2,0.17L86,86s1.6,1.64.23,2.9c0,0-.8,1-2.48,0L69.95,80.22s-2.56-1.74-4.41-1.09l-0.09,0c-1.77.87-2.32,3.91-2.32,3.91L59.69,99c-0.52,1.85-1.76,1.75-1.76,1.75-1.86.09-1.9-2.2-1.9-2.2l1.43-32h0Z" transform="translate(-5.4 -3.3)"/><path d="M39.64,55.35A2.69,2.69,0,0,1,42.26,57a2.65,2.65,0,0,1-.48,2.81l-0.17.21L20.14,83.86s-1.64,1.6-2.9.23c0,0-1-.8,0-2.48L26,67.85s1.73-2.56,1.09-4.42l0-.09C26.15,61.57,23.11,61,23.11,61L7.17,57.59c-1.86-.52-1.75-1.75-1.75-1.75-0.1-1.86,2.2-1.91,2.2-1.91l32,1.43h0Z" transform="translate(-5.4 -3.3)"/><path d="M68.65,48.74A2.69,2.69,0,0,1,66,47.05a2.66,2.66,0,0,1,.48-2.81L66.69,44l21.46-23.8s1.64-1.6,2.9-.23c0,0,1,.79,0,2.48L82.32,36.25s-1.73,2.55-1.09,4.41l0,0.09c0.87,1.77,3.91,2.33,3.91,2.33l15.93,3.43c1.86,0.51,1.75,1.76,1.75,1.76,0.09,1.86-2.2,1.91-2.2,1.91l-32-1.43h0Z" transform="translate(-5.4 -3.3)"/><path d="M41.55,44.12a2.7,2.7,0,0,1,.66,3,2.66,2.66,0,0,1-2.34,1.65l-0.27,0-32,1.65s-2.29,0-2.21-1.89c0,0-.12-1.24,1.74-1.77L23,43.3s3-.58,3.89-2.35l0-.09c0.63-1.87-1.12-4.4-1.12-4.4L17,22.75c-0.95-1.68,0-2.48,0-2.48,1.25-1.38,2.9.21,2.9,0.21L41.55,44.12h0Z" transform="translate(-5.4 -3.3)"/><path d="M66.74,60a2.71,2.71,0,0,1,1.68-4.69l0.27,0,32-1.65s2.29,0,2.21,1.89c0,0,.12,1.24-1.74,1.77L85.24,60.8s-3,.58-3.89,2.35l0,0.09c-0.63,1.86,1.12,4.41,1.12,4.41l8.84,13.69c0.95,1.68,0,2.48,0,2.48-1.24,1.38-2.9-.21-2.9-0.21L66.74,60h0Z" transform="translate(-5.4 -3.3)"/><path d="M46.23,64.64a2.7,2.7,0,0,1,3-.66,2.65,2.65,0,0,1,1.65,2.33l0,0.27,1.65,32s0,2.29-1.89,2.21c0,0-1.24.12-1.77-1.74L45.39,83.15s-0.58-3-2.35-3.89l-0.09,0c-1.86-.64-4.41,1.12-4.41,1.12L24.85,89.18c-1.68.95-2.48,0-2.48,0-1.38-1.25.21-2.9,0.21-2.9L46.23,64.64h0Z" transform="translate(-5.4 -3.3)"/><path d="M62.06,39.45a2.71,2.71,0,0,1-4.69-1.67l0-.27-1.65-32s0-2.3,1.89-2.21c0,0,1.24-.12,1.77,1.74L62.9,20.95s0.58,3,2.35,3.89l0.09,0c1.86,0.64,4.41-1.12,4.41-1.12l13.69-8.84c1.68-.95,2.48,0,2.48,0,1.38,1.25-.21,2.9-0.21,2.9L62.06,39.45h0Z" transform="translate(-5.4 -3.3)"/></svg>