<svg id="Layer_1" data-name="Layer 1" xmlns="http://www.w3.org/2000/svg" viewBox="0 0 100 100"><title>tech-transfers</title><path d="M4.27,55.8L33.47,26.59,39.86,33,10.66,62.19a4.52,4.52,0,0,1-6.39,0h0A4.52,4.52,0,0,1,4.27,55.8Zm25.86,0,0.15-.15a4.52,4.52,0,0,1,6.39,0L49.75,68.73a4.52,4.52,0,0,1,0,6.39l-0.15.15a4.52,4.52,0,0,1-6.39,0l-3.35-3.35-9.74,9.74a4.52,4.52,0,0,1-6.39,0h0a4.52,4.52,0,0,1,0-6.39l9.74-9.74-3.35-3.35A4.52,4.52,0,0,1,30.13,55.8ZM43.21,94.74L59.49,78.46l6.39,6.39L49.6,101.13a4.52,4.52,0,0,1-6.39,0h0A4.52,4.52,0,0,1,43.21,94.74ZM82.15,29.63L52.94,58.84l-6.39-6.39L75.76,23.24a4.52,4.52,0,0,1,6.39,0h0A4.52,4.52,0,0,1,82.15,29.63Zm0,52h0a4.52,4.52,0,0,1-6.39,0L62.68,68.57a4.52,4.52,0,0,1,0-6.39h0a4.52,4.52,0,0,1,6.39,0l3.35,3.35L95.23,42.72a4.52,4.52,0,0,1,6.39,0h0a4.52,4.52,0,0,1,0,6.39L78.8,71.92l3.35,3.35A4.52,4.52,0,0,1,82.15,81.66ZM49.75,29.79L36.67,16.7a4.52,4.52,0,0,1,0-6.39l0.15-.15a4.52,4.52,0,0,1,6.39,0l3.35,3.35,9.74-9.74a4.52,4.52,0,0,1,6.39,0h0a4.52,4.52,0,0,1,0,6.39L52.94,19.9l3.35,3.35a4.52,4.52,0,0,1,0,6.39l-0.15.15A4.52,4.52,0,0,1,49.75,29.79Z" transform="translate(-2.94 -2.45)"/></svg>