<svg id="Layer_1" data-name="Layer 1" xmlns="http://www.w3.org/2000/svg" viewBox="0 0 105.3 105.3"><title>university-collaboration</title><path d="M87.55,13.6a3.1,3.1,0,0,1,2.2.91l11.94,11.94a3.12,3.12,0,0,1,0,4.4L86.61,45.93H70.27V29.59L85.35,14.51a3.1,3.1,0,0,1,2.2-.91m-59.2,0a3.1,3.1,0,0,1,2.2.91L45.63,29.59V45.93H29.29L14.21,30.85a3.12,3.12,0,0,1,0-4.4L26.15,14.51a3.1,3.1,0,0,1,2.2-.91m58.26,57,15.08,15.08a3.12,3.12,0,0,1,0,4.4L89.75,102a3.11,3.11,0,0,1-4.4,0L70.27,86.91V70.57H86.61m-41,0V86.91L30.55,102a3.11,3.11,0,0,1-4.4,0L14.21,90.05a3.12,3.12,0,0,1,0-4.4L29.29,70.57H45.63m41.92-65a11.08,11.08,0,0,0-7.86,3.25L62.27,26.28V53.93H89.93l17.42-17.42a11.11,11.11,0,0,0,0-15.72L95.41,8.85A11.08,11.08,0,0,0,87.55,5.6h0Zm-59.2,0a11.08,11.08,0,0,0-7.86,3.25L8.55,20.79a11.11,11.11,0,0,0,0,15.72L26,53.93H53.63V26.28L36.21,8.85A11.08,11.08,0,0,0,28.35,5.6h0Zm61.58,57H62.27V90.23l17.42,17.42a11.11,11.11,0,0,0,15.72,0l11.94-11.94a11.11,11.11,0,0,0,0-15.72L89.93,62.57h0Zm-36.3,0H26L8.55,80a11.11,11.11,0,0,0,0,15.72l11.94,11.94a11.11,11.11,0,0,0,15.72,0L53.63,90.23V62.57h0Z" transform="translate(-5.3 -5.6)"/></svg>