<svg id="Layer_1" data-name="Layer 1" xmlns="http://www.w3.org/2000/svg" viewBox="0 0 71.75 103.14"><title>water</title><path d="M38.23,11.6C43.53,27.36,54,42.32,59.8,50.54c1.17,1.66,2.17,3.09,2.73,4A28.85,28.85,0,1,1,9.36,70,29.42,29.42,0,0,1,14,54.48c0.56-.87,1.56-2.3,2.71-3.94,5.77-8.22,16.28-23.19,21.57-38.94m0-8.85a6.35,6.35,0,0,0-6,4.48C26.6,26.15,11.61,45.13,8,50.74A36.32,36.32,0,0,0,2.36,70,35.87,35.87,0,1,0,68.43,50.74c-3.57-5.6-18.57-24.59-24.24-43.51a6.29,6.29,0,0,0-6-4.48h0Z" transform="translate(-2.36 -2.74)"/><path d="M38.23,91.38A21.4,21.4,0,0,1,16.86,70a22.08,22.08,0,0,1,3.42-11.5c0.51-.8,1.43-2.11,2.5-3.63a3.5,3.5,0,0,1,5.75,4c-1,1.37-1.93,2.75-2.34,3.38A15,15,0,0,0,23.86,70,14.39,14.39,0,0,0,38.23,84.38,3.5,3.5,0,0,1,38.23,91.38Z" transform="translate(-2.36 -2.74)"/></svg>