<svg id="Layer_1" data-name="Layer 1" xmlns="http://www.w3.org/2000/svg" viewBox="0 0 102.94 102.94"><title>weather</title><path d="M106.47,56.3h0A3.48,3.48,0,0,1,103,59.78H78.1L93,77.19a3.57,3.57,0,0,1,0,5h0a3.57,3.57,0,0,1-5.1,0L69,59.78H58.48V70.29L80.93,89.21a3.57,3.57,0,0,1,0,5.1h0a3.57,3.57,0,0,1-5,0L58.48,79.4v24.89A3.48,3.48,0,0,1,55,107.77h0a3.48,3.48,0,0,1-3.48-3.48V79.4L34.11,94.27a3.57,3.57,0,0,1-5,0h0a3.57,3.57,0,0,1,0-5.1L51.52,70.29V59.78H42.7L22.09,82.23a3.57,3.57,0,0,1-5.1,0h0a3.57,3.57,0,0,1,0-5L33.59,59.78H7A3.48,3.48,0,0,1,3.53,56.3h0A3.48,3.48,0,0,1,7,52.82H33.59L17,35.41a3.57,3.57,0,0,1,0-5h0a3.57,3.57,0,0,1,5.1,0L42.7,52.82h8.82V43.15L29.07,23.38a3.57,3.57,0,0,1,0-5.1h0a3.57,3.57,0,0,1,5,0L51.52,34V8.31A3.48,3.48,0,0,1,55,4.83h0a3.48,3.48,0,0,1,3.48,3.48V34L75.89,18.32a3.57,3.57,0,0,1,5,0h0a3.57,3.57,0,0,1,0,5.1L58.48,43.15v9.67H69L87.92,30.37a3.57,3.57,0,0,1,5.1,0h0a3.57,3.57,0,0,1,0,5L78.1,52.82H103A3.48,3.48,0,0,1,106.47,56.3Z" transform="translate(-3.53 -4.83)"/></svg>