<svg id="Layer_1" data-name="Layer 1" xmlns="http://www.w3.org/2000/svg" viewBox="0 0 96 102.62"><title>what-we-offer</title><path d="M6.17,108.17V80.37c0-4.26,3.07-8.1,8.54-11.75a60.55,60.55,0,0,1,19.58-8.36,87.36,87.36,0,0,1,19.83-2.54,87,87,0,0,1,19.78,2.54,61.58,61.58,0,0,1,19.76,8.36c5.46,3.64,8.51,7.49,8.51,11.75v27.79h-96Zm48.05-43a72.89,72.89,0,0,0-26.07,4.92c-9.71,3.73-14,6.81-14,10.31v19.79h80V80.37c0-3.5-4.22-6.58-13.93-10.31A72.66,72.66,0,0,0,54.22,65.15Zm0-14.6A21.32,21.32,0,0,1,38.44,44a21.32,21.32,0,0,1-6.58-15.78,21.8,21.8,0,0,1,6.59-15.94A21.11,21.11,0,0,1,54.22,5.54,21.12,21.12,0,0,1,70,12.25a21.82,21.82,0,0,1,6.59,15.94A21.34,21.34,0,0,1,70,44,21.34,21.34,0,0,1,54.22,50.55Zm0-37.58A15.05,15.05,0,0,0,39,28.19,14.28,14.28,0,0,0,43.43,38.9a15,15,0,0,0,10.79,4.23A15,15,0,0,0,65,38.9a14.3,14.3,0,0,0,4.44-10.7A15.05,15.05,0,0,0,54.22,13Z" transform="translate(-6.17 -5.54)"/></svg>