<svg id="Layer_1" data-name="Layer 1" xmlns="http://www.w3.org/2000/svg" viewBox="0 0 98.56 98.56"><title>where-we-focus</title><path d="M57.62,28.25L68.57,17.31l7.18,7.18L57.62,42.62,39.5,24.49l7.18-7.18Zm-40,18.13,7.18-7.18L42.92,57.33,24.79,75.46,17.6,68.27,28.55,57.33ZM86.7,57.33L97.64,68.27l-7.18,7.18L72.33,57.33,90.46,39.2l7.18,7.18ZM39.5,90.16L57.62,72,75.75,90.16l-7.18,7.18L57.62,86.4,46.68,97.35Z" transform="translate(-8.31 -8.14)"/><path d="M13.42,30.14h5.11a0,0,0,0,1,0,0V40.36a0,0,0,0,1,0,0H13.42a5.11,5.11,0,0,1-5.11-5.11v0a5.11,5.11,0,0,1,5.11-5.11Z" transform="translate(20.55 -7.3) rotate(45)"/><path d="M96.64,74.47h5.11a5.11,5.11,0,0,1,5.11,5.11v0a5.11,5.11,0,0,1-5.11,5.11H96.64a0,0,0,0,1,0,0V74.47a0,0,0,0,1,0,0Z" transform="translate(77.77 -56.78) rotate(45)"/><path d="M35.42,96.47h5.11a0,0,0,0,1,0,0V106.7a0,0,0,0,1,0,0H35.42a5.11,5.11,0,0,1-5.11-5.11v0A5.11,5.11,0,0,1,35.42,96.47Z" transform="translate(-69.76 46.66) rotate(-45)"/><path d="M74.65,8.14h5.11a5.11,5.11,0,0,1,5.11,5.11v0a5.11,5.11,0,0,1-5.11,5.11H74.65a0,0,0,0,1,0,0V8.14a0,0,0,0,1,0,0Z" transform="translate(5.68 52.14) rotate(-45)"/><path d="M13.42,74.47h5.11a0,0,0,0,1,0,0V84.7a0,0,0,0,1,0,0H13.42a5.11,5.11,0,0,1-5.11-5.11v0a5.11,5.11,0,0,1,5.11-5.11Z" transform="translate(-60.65 24.66) rotate(-45)"/><path d="M96.64,30.14h5.11a5.11,5.11,0,0,1,5.11,5.11v0a5.11,5.11,0,0,1-5.11,5.11H96.64a0,0,0,0,1,0,0V30.14A0,0,0,0,1,96.64,30.14Z" transform="translate(-3.43 74.14) rotate(-45)"/><path d="M35.42,8.14h5.11a0,0,0,0,1,0,0V18.36a0,0,0,0,1,0,0H35.42a5.11,5.11,0,0,1-5.11-5.11v0A5.11,5.11,0,0,1,35.42,8.14Z" transform="translate(11.43 -29.3) rotate(45)"/><path d="M74.65,96.47h5.11a5.11,5.11,0,0,1,5.11,5.11v0a5.11,5.11,0,0,1-5.11,5.11H74.65a0,0,0,0,1,0,0V96.47A0,0,0,0,1,74.65,96.47Z" transform="translate(86.88 -34.78) rotate(45)"/></svg>